<svg width="16" height="16" viewBox="0 0 16 16"  xmlns="http://www.w3.org/2000/svg">
<path d="M10.5303 2.53033C10.8232 2.23744 10.8232 1.76256 10.5303 1.46967C10.2374 1.17678 9.76256 1.17678 9.46967 1.46967L10.5303 2.53033ZM4 8L3.46967 7.46967C3.17678 7.76256 3.17678 8.23744 3.46967 8.53033L4 8ZM9.46967 14.5303C9.76256 14.8232 10.2374 14.8232 10.5303 14.5303C10.8232 14.2374 10.8232 13.7626 10.5303 13.4697L9.46967 14.5303ZM9.46967 1.46967L3.46967 7.46967L4.53033 8.53033L10.5303 2.53033L9.46967 1.46967ZM3.46967 8.53033L9.46967 14.5303L10.5303 13.4697L4.53033 7.46967L3.46967 8.53033Z" />
</svg>
