<svg width="16" height="16" viewBox="0 0 16 16"  xmlns="http://www.w3.org/2000/svg">
<path fill-rule="evenodd" clip-rule="evenodd" d="M8 1.75C8.41422 1.75 8.75 2.08579 8.75 2.5V7.625L9.9569 6.35776C10.2426 6.05781 10.7173 6.04623 11.0172 6.3319C11.3172 6.61756 11.3288 7.09229 11.0431 7.39224L8.5431 10.0172C8.40155 10.1659 8.20526 10.25 8 10.25C7.79474 10.25 7.59845 10.1659 7.4569 10.0172L4.9569 7.39224C4.67123 7.09229 4.68281 6.61756 4.98276 6.3319C5.28271 6.04623 5.75744 6.05781 6.0431 6.35776L7.25 7.625V2.5C7.25 2.08579 7.58579 1.75 8 1.75Z" />
<path fill-rule="evenodd" clip-rule="evenodd" d="M2 7.75C2.41421 7.75 2.75 8.08579 2.75 8.5V12.75H13.25V8.5C13.25 8.08579 13.5858 7.75 14 7.75C14.4142 7.75 14.75 8.08579 14.75 8.5V13.5C14.75 13.9142 14.4142 14.25 14 14.25H2C1.58579 14.25 1.25 13.9142 1.25 13.5V8.5C1.25 8.08579 1.58579 7.75 2 7.75Z" />
</svg>
