<svg width="16" height="16" viewBox="0 0 16 16"  xmlns="http://www.w3.org/2000/svg">
<path fill-rule="evenodd" clip-rule="evenodd" d="M14.3943 1.36201C14.6154 1.49867 14.75 1.74007 14.75 2V12C14.75 12.2841 14.5895 12.5438 14.3354 12.6708L10.3354 14.6708C10.1029 14.7871 9.82681 14.7746 9.6057 14.638C9.38459 14.5013 9.25 14.2599 9.25 14V4C9.25 3.71592 9.4105 3.45622 9.66459 3.32918L13.6646 1.32918C13.8971 1.21293 14.1732 1.22536 14.3943 1.36201ZM10.75 4.46353V12.7865L13.25 11.5365V3.21353L10.75 4.46353Z" />
<path fill-rule="evenodd" clip-rule="evenodd" d="M5.6057 1.36201C5.82681 1.22536 6.10292 1.21293 6.33541 1.32918L10.3354 3.32918C10.5895 3.45622 10.75 3.71592 10.75 4V14C10.75 14.2599 10.6154 14.5013 10.3943 14.638C10.1732 14.7746 9.89708 14.7871 9.66459 14.6708L5.66459 12.6708C5.4105 12.5438 5.25 12.2841 5.25 12V2C5.25 1.74007 5.38459 1.49867 5.6057 1.36201ZM6.75 3.21353V11.5365L9.25 12.7865V4.46353L6.75 3.21353Z" />
<path fill-rule="evenodd" clip-rule="evenodd" d="M6.3943 1.36201C6.61541 1.49867 6.75 1.74007 6.75 2V12C6.75 12.2841 6.5895 12.5438 6.33541 12.6708L2.33541 14.6708C2.10292 14.7871 1.82681 14.7746 1.6057 14.638C1.38459 14.5013 1.25 14.2599 1.25 14V4C1.25 3.71592 1.4105 3.45622 1.66459 3.32918L5.66459 1.32918C5.89708 1.21293 6.17319 1.22536 6.3943 1.36201ZM2.75 4.46353V12.7865L5.25 11.5365V3.21353L2.75 4.46353Z" />
</svg>
