<svg width="16" height="16" viewBox="0 0 16 16" xmlns="http://www.w3.org/2000/svg">
<path fill-rule="evenodd" clip-rule="evenodd" d="M0.75 2.86842C0.75 1.69845 1.69845 0.75 2.86842 0.75H4.8554C5.75272 0.75 6.55963 1.29631 6.89289 2.12945L7.6543 4.03298C7.95365 4.78136 7.81864 5.63362 7.30263 6.25283L6.89285 6.74457C6.66291 7.02049 6.68132 7.42621 6.93529 7.68018L8.31982 9.06471C8.57379 9.31868 8.97951 9.33709 9.25544 9.10715L9.74717 8.69737C10.3664 8.18136 11.2186 8.04635 11.967 8.3457L13.8706 9.10711C14.7037 9.44037 15.25 10.2473 15.25 11.1446V13.1316C15.25 14.3015 14.3015 15.25 13.1316 15.25C6.29342 15.25 0.75 9.70658 0.75 2.86842ZM2.86842 2.25C2.52688 2.25 2.25 2.52688 2.25 2.86842C2.25 8.87815 7.12185 13.75 13.1316 13.75C13.4731 13.75 13.75 13.4731 13.75 13.1316V11.1446C13.75 10.8606 13.5771 10.6053 13.3135 10.4998L11.4099 9.73841C11.1731 9.64368 10.9034 9.68641 10.7075 9.8497L10.2157 10.2595C9.3438 10.9861 8.06171 10.9279 7.25916 10.1254L5.87463 8.74084C5.07208 7.9383 5.01392 6.6562 5.74051 5.78429L6.1503 5.29255C6.31359 5.0966 6.35632 4.8269 6.26159 4.59007L5.50017 2.68653C5.39471 2.42288 5.13936 2.25 4.8554 2.25H2.86842Z" />
</svg>
