<svg width="16" height="16" viewBox="0 0 16 16"  xmlns="http://www.w3.org/2000/svg">
<path fill-rule="evenodd" clip-rule="evenodd" d="M1.25 2C1.25 1.58579 1.58579 1.25 2 1.25H6.5C6.69891 1.25 6.88968 1.32902 7.03033 1.46967L9.53033 3.96967C9.82322 4.26256 9.82322 4.73744 9.53033 5.03033C9.23744 5.32322 8.76256 5.32322 8.46967 5.03033L6.18934 2.75H2.75V13.25H6.5V9.25H5.5C5.08579 9.25 4.75 8.91421 4.75 8.5C4.75 8.08579 5.08579 7.75 5.5 7.75H9C9.41421 7.75 9.75 8.08579 9.75 8.5C9.75 8.91421 9.41421 9.25 9 9.25H8V13.25H13.25V9.25H12C11.5858 9.25 11.25 8.91421 11.25 8.5C11.25 8.08579 11.5858 7.75 12 7.75H13.25V2.75H10.5C10.0858 2.75 9.75 2.41421 9.75 2C9.75 1.58579 10.0858 1.25 10.5 1.25H14C14.4142 1.25 14.75 1.58579 14.75 2V14C14.75 14.4142 14.4142 14.75 14 14.75H2C1.58579 14.75 1.25 14.4142 1.25 14V2Z" />
</svg>
