<?xml version="1.0" encoding="utf-8"?>
<!-- Generator: Adobe Illustrator 16.0.0, SVG Export Plug-In . SVG Version: 6.00 Build 0)  -->
<!DOCTYPE svg PUBLIC "-//W3C//DTD SVG 1.1//EN" "http://www.w3.org/Graphics/SVG/1.1/DTD/svg11.dtd">
<svg version="1.1" id="Layer_1" xmlns="http://www.w3.org/2000/svg" xmlns:xlink="http://www.w3.org/1999/xlink" x="0px" y="0px"
	 width="18px" height="18px" viewBox="0 0 18 18" enable-background="new 0 0 18 18" xml:space="preserve">
<path fill="#1A142D" d="M10.77,9.59c-0.367,1.858-2.003,3.26-3.97,3.26c-2.236,0-4.05-1.813-4.05-4.05c0-2.236,1.813-4.05,4.05-4.05
	c0.106,0,0.206,0.023,0.311,0.031C7,4.282,6.979,3.768,7.055,3.263C6.97,3.259,6.886,3.25,6.8,3.25c-3.065,0-5.55,2.485-5.55,5.55
	c0,3.065,2.485,5.55,5.55,5.55c1.262,0,2.426-0.421,3.358-1.131l3.312,3.312c0.293,0.293,0.768,0.293,1.061,0s0.293-0.768,0-1.061
	l-3.312-3.312c0.298-0.391,0.531-0.83,0.717-1.293L10.77,9.59z"/>
<path fill="#1A142D" d="M15.49,2.519c-0.634-0.692-1.619-0.692-2.251,0c-0.001,0-0.001,0-0.001,0L12.5,3.326L11.762,2.52
	c0,0,0,0-0.001,0c-0.632-0.692-1.618-0.692-2.251,0c-0.301,0.329-0.46,0.756-0.495,1.193C8.971,4.264,9.131,4.833,9.51,5.248
	l2.816,3.08l0.174,0.19l2.99-3.271C16.17,4.503,16.17,3.263,15.49,2.519z"/>
</svg>
