<svg width="16" height="16" viewBox="0 0 16 16"  xmlns="http://www.w3.org/2000/svg">
<path fill-rule="evenodd" clip-rule="evenodd" d="M6.6 1.75C3.92142 1.75 1.75 3.92142 1.75 6.6C1.75 9.27858 3.92142 11.45 6.6 11.45C9.27858 11.45 11.45 9.27858 11.45 6.6C11.45 3.92142 9.27858 1.75 6.6 1.75ZM0.25 6.6C0.25 3.09299 3.09299 0.25 6.6 0.25C10.107 0.25 12.95 3.09299 12.95 6.6C12.95 8.08324 12.4415 9.44771 11.5892 10.5286L15.5303 14.4697C15.8232 14.7626 15.8232 15.2374 15.5303 15.5303C15.2374 15.8232 14.7626 15.8232 14.4697 15.5303L10.5286 11.5892C9.44771 12.4415 8.08324 12.95 6.6 12.95C3.09299 12.95 0.25 10.107 0.25 6.6Z" />
</svg>
