<?xml version="1.0" encoding="utf-8"?>
<!-- Generator: Adobe Illustrator 16.0.0, SVG Export Plug-In . SVG Version: 6.00 Build 0)  -->
<!DOCTYPE svg PUBLIC "-//W3C//DTD SVG 1.1//EN" "http://www.w3.org/Graphics/SVG/1.1/DTD/svg11.dtd">
<svg version="1.1" id="Layer_1" xmlns="http://www.w3.org/2000/svg" xmlns:xlink="http://www.w3.org/1999/xlink" x="0px" y="0px"
	 width="16px" height="16px" viewBox="0 0 16 16" enable-background="new 0 0 16 16" xml:space="preserve">
<g>
	<path d="M1,5.75h1.367c0.328,1.151,1.376,2,2.633,2s2.305-0.849,2.633-2H15c0.414,0,0.75-0.336,0.75-0.75S15.414,4.25,15,4.25
		H7.633c-0.328-1.151-1.376-2-2.633-2s-2.305,0.849-2.633,2H1C0.586,4.25,0.25,4.586,0.25,5S0.586,5.75,1,5.75z M3.75,5
		c0-0.287,0.113-0.539,0.276-0.75C4.254,3.954,4.597,3.75,5,3.75s0.746,0.204,0.974,0.5C6.137,4.461,6.25,4.713,6.25,5
		S6.137,5.539,5.974,5.75C5.746,6.046,5.403,6.25,5,6.25s-0.746-0.204-0.974-0.5C3.863,5.539,3.75,5.287,3.75,5z"/>
	<path d="M15,10.25h-1.367c-0.328-1.151-1.376-2-2.633-2s-2.305,0.849-2.633,2H1c-0.414,0-0.75,0.336-0.75,0.75S0.586,11.75,1,11.75
		h7.367c0.329,1.151,1.376,2,2.633,2s2.305-0.849,2.633-2H15c0.414,0,0.75-0.336,0.75-0.75S15.414,10.25,15,10.25z M12.25,11
		c0,0.287-0.113,0.539-0.275,0.75c-0.229,0.297-0.571,0.5-0.975,0.5s-0.746-0.203-0.975-0.5C9.863,11.539,9.75,11.287,9.75,11
		s0.113-0.539,0.275-0.75c0.229-0.297,0.571-0.5,0.975-0.5s0.746,0.203,0.975,0.5C12.137,10.461,12.25,10.713,12.25,11z"/>
</g>
</svg>
