<svg width="24" height="24" viewBox="0 0 24 24"  xmlns="http://www.w3.org/2000/svg">
<path d="M20 7.40423C19.4183 7.40424 18.8423 7.29033 18.3049 7.069C17.7675 6.84767 17.2792 6.52325 16.8678 6.11428C16.4565 5.70531 16.1302 5.21979 15.9076 4.68544C15.685 4.15109 15.5704 3.57838 15.5704 3H12.4058V15.3214C12.4052 15.8832 12.2268 16.4305 11.8959 16.8858C11.5649 17.3411 11.0983 17.6813 10.562 17.8582C10.0258 18.0351 9.44716 18.0397 8.90815 17.8713C8.36914 17.7029 7.89709 17.3702 7.55892 16.9202C7.22074 16.4701 7.03359 15.9257 7.02399 15.364C7.01439 14.8024 7.18283 14.2519 7.50543 13.7907C7.82804 13.3296 8.28844 12.981 8.82138 12.7946C9.35433 12.6081 9.93279 12.5931 10.4748 12.7518V9.69308C9.32296 9.53865 8.15117 9.73728 7.11589 10.2625C6.08061 10.7876 5.2311 11.6143 4.6808 12.6322C4.1305 13.6501 3.90561 14.8106 4.03615 15.9589C4.16668 17.1072 4.64644 18.1886 5.41136 19.0586C6.17628 19.9287 7.18995 20.546 8.31701 20.8281C9.44407 21.1103 10.6309 21.0438 11.719 20.6377C12.807 20.2315 13.7446 19.505 14.4065 18.555C15.0683 17.6051 15.423 16.477 15.423 15.3214L15.5149 9.09328C16.8151 10.0424 18.3866 10.5531 19.9996 10.5507L20 7.40423Z" />
</svg>
