<svg width="24" height="24" viewBox="0 0 24 24"  xmlns="http://www.w3.org/2000/svg">
<path d="M12.8039 18C6.65397 18 3.14616 13.4955 3 6H6.08057C6.18176 11.5015 8.45284 13.8318 10.2517 14.3123V6H13.1524V10.7447C14.9288 10.5405 16.7951 8.37838 17.4247 6H20.3254C20.0882 7.23349 19.6152 8.40142 18.9362 9.43072C18.2572 10.46 17.3867 11.3285 16.3791 11.982C17.5038 12.579 18.4972 13.4241 19.2937 14.4615C20.0902 15.4988 20.6718 16.7049 21 18H17.807C17.5124 16.8751 16.9135 15.8681 16.0855 15.1053C15.2575 14.3424 14.2372 13.8577 13.1524 13.7117V18H12.8039Z" />
</svg>
