<svg width="24" height="24" viewBox="0 0 24 24"  xmlns="http://www.w3.org/2000/svg">
<path fill-rule="evenodd" clip-rule="evenodd" d="M4.05681 18.1159C3.70021 18.0153 3.37483 17.8364 3.10814 17.5942C2.84145 17.352 2.64128 17.0537 2.5245 16.7244C1.8572 15.0224 1.65948 7.91534 2.94465 6.51233C3.37237 6.05592 3.97627 5.77492 4.62525 5.73032C8.07295 5.38532 18.725 5.43132 19.9484 5.84533C20.2924 5.94921 20.6068 6.12422 20.8679 6.35724C21.129 6.59026 21.33 6.87524 21.456 7.19083C22.185 8.95035 22.2097 15.3444 21.3571 17.0349C21.1309 17.4749 20.7522 17.8314 20.282 18.0469C18.9968 18.6449 5.76212 18.6334 4.05681 18.1159ZM9.53111 14.7809L15.7098 11.7909L9.53111 8.77784V14.7809Z" />
</svg>
