<?xml version="1.0" encoding="utf-8"?>
<!-- Generator: Adobe Illustrator 16.0.0, SVG Export Plug-In . SVG Version: 6.00 Build 0)  -->
<!DOCTYPE svg PUBLIC "-//W3C//DTD SVG 1.1//EN" "http://www.w3.org/Graphics/SVG/1.1/DTD/svg11.dtd">
<svg version="1.1" id="Layer_1" xmlns="http://www.w3.org/2000/svg" xmlns:xlink="http://www.w3.org/1999/xlink" x="0px" y="0px"
	 width="219px" height="32px" viewBox="0 0 219 32" enable-background="new 0 0 219 32" xml:space="preserve">
<path fill="#EB3440" d="M26.812,0H5.358C4.653,0,3.956,0.138,3.305,0.406s-1.242,0.662-1.74,1.158
	C1.067,2.061,0.672,2.649,0.404,3.297C0.136,3.945-0.002,4.64,0,5.341V26.67c0,0.701,0.138,1.395,0.407,2.041
	s0.664,1.234,1.161,1.729s1.088,0.888,1.739,1.155S4.654,32,5.358,32h21.454c0.704,0,1.401-0.137,2.051-0.404
	s1.241-0.66,1.739-1.155s0.892-1.083,1.161-1.729s0.407-1.34,0.407-2.041V5.33c0-0.7-0.138-1.394-0.407-2.04
	c-0.269-0.647-0.664-1.235-1.161-1.73s-1.088-0.888-1.739-1.155S27.516,0,26.812,0z M4.279,9.722h7.151
	c2.463,0,4.597,0.915,4.597,3.466c0,1.366-0.658,2.157-1.861,2.778c1.691,0.542,2.554,1.67,2.554,3.375
	c0,1.276-0.477,2.338-1.396,3.094c-1.215,1.006-2.588,1.039-4.132,1.039H4.279V9.722z M7.923,12.466v2.665h2.656
	c1.26,0,1.839-0.407,1.839-1.333c0-1.141-0.942-1.333-1.941-1.333H7.923z M7.923,17.49v3.15h2.94c1.112,0,2.111-0.215,2.111-1.569
	c0-1.333-1.056-1.581-2.214-1.581H7.923z M18.684,9.722h3.837c2.656,0.034,4.768,1.31,4.79,3.986c0,1.581-0.749,2.721-2.225,3.354
	c0.908,0.282,1.555,0.88,1.816,1.772l0.004,0.012c0.212,0.725,0.258,0.881,0.439,2.901c0.006,0.07,0.012,0.14,0.018,0.208
	c0.044,0.549,0.084,1.047,0.448,1.509h-3.814c-0.273-0.61-0.323-1.382-0.37-2.106c-0.017-0.268-0.034-0.529-0.062-0.773
	c-0.182-1.614-0.829-2.235-2.565-2.235h-2.305v-2.552h2.645c1.226,0,2.259-0.249,2.259-1.694c0-1.084-0.749-1.604-2.304-1.604
	h-2.611V9.722z"/>
<g id="logo-text">
	<path fill="#1A142D" d="M40.831,21.334V10.847h3.61c0.914,0,1.66,0.281,2.24,0.842c0.589,0.562,0.884,1.246,0.884,2.053
		c0,0.866-0.324,1.541-0.972,2.023c1.12,0.463,1.68,1.295,1.68,2.497c0,0.876-0.319,1.609-0.958,2.2
		c-0.628,0.581-1.434,0.872-2.417,0.872H40.831z M42.555,19.753h2.299c0.55,0,0.977-0.138,1.282-0.413s0.457-0.641,0.457-1.094
		c0-0.442-0.152-0.802-0.457-1.078c-0.305-0.285-0.732-0.428-1.282-0.428h-2.299V19.753z M42.555,15.263h1.798
		c0.461,0,0.83-0.133,1.105-0.399c0.275-0.266,0.413-0.605,0.413-1.019c0-0.394-0.138-0.729-0.413-1.004
		c-0.275-0.275-0.644-0.413-1.105-0.413h-1.798V15.263z"/>
	<path fill="#1A142D" d="M49.39,21.334V10.847h3.772c0.963,0,1.729,0.281,2.299,0.842c0.58,0.551,0.869,1.265,0.869,2.142
		c0,0.738-0.206,1.349-0.619,1.832c-0.403,0.473-0.987,0.792-1.753,0.96l3.89,4.712h-2.122l-3.831-4.609h-0.781v4.609H49.39z
		 M51.114,15.219h1.842c0.511,0,0.914-0.118,1.208-0.354c0.295-0.246,0.442-0.591,0.442-1.034s-0.147-0.783-0.442-1.019
		c-0.295-0.246-0.697-0.369-1.208-0.369h-1.842V15.219z"/>
	<path fill="#1A142D" d="M58.15,21.334V10.847h1.724v10.487H58.15z"/>
	<path fill="#1A142D" d="M66.506,21.511c-1.562,0-2.864-0.517-3.905-1.551c-1.041-1.044-1.562-2.333-1.562-3.87
		c0-1.536,0.516-2.821,1.547-3.855c1.042-1.043,2.343-1.565,3.905-1.565c1.149,0,2.176,0.31,3.08,0.931
		c0.904,0.62,1.527,1.403,1.871,2.348h-1.959c-0.275-0.482-0.683-0.872-1.223-1.167c-0.53-0.295-1.12-0.443-1.768-0.443
		c-1.081,0-1.97,0.359-2.667,1.078c-0.697,0.719-1.046,1.61-1.046,2.673c0,1.064,0.349,1.955,1.046,2.673
		c0.698,0.719,1.592,1.078,2.682,1.078c0.953,0,1.734-0.275,2.343-0.827s0.973-1.28,1.09-2.187h-3.581v-1.624h5.349
		c0.187,1.95-0.231,3.491-1.253,4.623C69.443,20.949,68.126,21.511,66.506,21.511z"/>
	<path fill="#1A142D" d="M72.909,21.334V10.847h1.724v4.342h5.172v-4.342h1.724v10.487h-1.724v-4.506h-5.172v4.506H72.909z"/>
	<path fill="#1A142D" d="M85.401,21.334v-8.833h-3.036v-1.654h7.81v1.654h-3.05v8.833H85.401z"/>
	<path fill="#1A142D" d="M93.248,21.334V10.847h3.772c0.962,0,1.729,0.281,2.298,0.842c0.58,0.551,0.869,1.265,0.869,2.142
		c0,0.738-0.206,1.349-0.619,1.832c-0.403,0.473-0.987,0.792-1.753,0.96l3.89,4.712h-2.122l-3.832-4.609h-0.781v4.609H93.248z
		 M94.972,15.219h1.842c0.511,0,0.914-0.118,1.208-0.354c0.294-0.246,0.442-0.591,0.442-1.034s-0.147-0.783-0.442-1.019
		c-0.295-0.246-0.698-0.369-1.208-0.369h-1.842V15.219z"/>
	<path fill="#1A142D" d="M102.009,21.334V10.847h1.724v10.487H102.009z"/>
	<path fill="#1A142D" d="M110.35,21.511c-1.563,0-2.864-0.517-3.906-1.551c-1.031-1.044-1.547-2.333-1.547-3.87
		c0-1.536,0.516-2.821,1.547-3.855c1.042-1.043,2.343-1.565,3.906-1.565c1.237,0,2.318,0.354,3.241,1.063
		c0.933,0.699,1.533,1.575,1.798,2.629h-1.856c-0.226-0.601-0.63-1.088-1.208-1.462c-0.58-0.374-1.238-0.561-1.975-0.561
		c-1.081,0-1.97,0.359-2.667,1.078c-0.697,0.719-1.046,1.61-1.046,2.673c0,1.064,0.349,1.955,1.046,2.673
		c0.698,0.719,1.587,1.078,2.667,1.078c0.736,0,1.395-0.188,1.975-0.562c0.578-0.374,0.982-0.861,1.208-1.462h1.856
		c-0.265,1.053-0.865,1.935-1.798,2.644C112.668,21.161,111.587,21.511,110.35,21.511z"/>
	<path fill="#1A142D" d="M116.393,21.334V10.847h1.725v4.342h5.172v-4.342h1.725v10.487h-1.725v-4.506h-5.172v4.506H116.393z"/>
	<path fill="#1A142D" d="M140.252,21.511c-1.563,0-2.863-0.517-3.904-1.551c-1.031-1.044-1.548-2.333-1.548-3.87
		c0-1.536,0.517-2.821,1.548-3.855c1.041-1.043,2.342-1.565,3.904-1.565c1.238,0,2.318,0.354,3.242,1.063
		c0.933,0.699,1.531,1.575,1.797,2.629h-1.855c-0.227-0.601-0.629-1.088-1.209-1.462c-0.58-0.374-1.238-0.561-1.975-0.561
		c-1.081,0-1.97,0.359-2.667,1.078c-0.698,0.719-1.046,1.61-1.046,2.673c0,1.064,0.348,1.955,1.046,2.673
		c0.697,0.719,1.586,1.078,2.667,1.078c0.736,0,1.395-0.188,1.975-0.562s0.982-0.861,1.209-1.462h1.855
		c-0.266,1.053-0.864,1.935-1.797,2.644C142.57,21.161,141.49,21.511,140.252,21.511z"/>
	<path fill="#1A142D" d="M151.041,19.842c1.021,0,1.886-0.364,2.593-1.094c0.707-0.729,1.062-1.614,1.062-2.658
		c0-1.044-0.354-1.93-1.062-2.659s-1.571-1.093-2.593-1.093c-1.032,0-1.9,0.364-2.609,1.093c-0.707,0.729-1.061,1.615-1.061,2.659
		c0,1.043,0.354,1.929,1.061,2.658C149.141,19.478,150.009,19.842,151.041,19.842z M154.872,19.93
		c-1.052,1.055-2.328,1.581-3.831,1.581s-2.781-0.522-3.832-1.565c-1.051-1.054-1.576-2.339-1.576-3.855
		c0-1.517,0.525-2.796,1.576-3.84c1.051-1.054,2.329-1.581,3.832-1.581s2.779,0.527,3.831,1.581c1.051,1.053,1.577,2.333,1.577,3.84
		S155.923,18.877,154.872,19.93z"/>
	<path fill="#1A142D" d="M157.604,21.334V10.847h3.772c0.963,0,1.729,0.281,2.299,0.842c0.579,0.551,0.869,1.265,0.869,2.142
		c0,0.738-0.206,1.349-0.619,1.832c-0.403,0.473-0.987,0.792-1.753,0.96l3.891,4.712h-2.123l-3.83-4.609h-0.781v4.609H157.604z
		 M159.328,15.219h1.842c0.51,0,0.913-0.118,1.208-0.354c0.295-0.246,0.442-0.591,0.442-1.034s-0.147-0.783-0.442-1.019
		c-0.295-0.246-0.698-0.369-1.208-0.369h-1.842V15.219z"/>
	<path fill="#1A142D" d="M166.363,21.334V10.847h6.22v1.654h-4.495v2.703h3.537v1.64h-3.537v4.49H166.363z"/>
	<path fill="#1A142D" d="M171.613,21.334l4.568-10.487h1.504l4.567,10.487h-1.798l-1.193-2.748h-4.686l-1.18,2.748H171.613z
		 M176.919,13.181l-1.681,3.87h3.359L176.919,13.181z"/>
	<path fill="#1A142D" d="M187.279,21.511c-1.563,0-2.864-0.517-3.905-1.551c-1.032-1.044-1.547-2.333-1.547-3.87
		c0-1.536,0.515-2.821,1.547-3.855c1.041-1.043,2.343-1.565,3.905-1.565c1.238,0,2.318,0.354,3.242,1.063
		c0.933,0.699,1.531,1.575,1.797,2.629h-1.856c-0.226-0.601-0.629-1.088-1.209-1.462c-0.579-0.374-1.237-0.561-1.974-0.561
		c-1.081,0-1.971,0.359-2.668,1.078s-1.045,1.61-1.045,2.673c0,1.064,0.348,1.955,1.045,2.673s1.587,1.078,2.668,1.078
		c0.736,0,1.395-0.188,1.974-0.562c0.58-0.374,0.983-0.861,1.209-1.462h1.856c-0.266,1.053-0.864,1.935-1.797,2.644
		C189.598,21.161,188.518,21.511,187.279,21.511z"/>
	<path fill="#1A142D" d="M196.055,21.334V10.847h1.723v10.487H196.055z"/>
	<path fill="#1A142D" d="M208.727,21.334h-1.502l-5.896-7.548v7.548h-1.724V10.847h1.502l5.881,7.532v-7.532h1.738V21.334z"/>
	<path fill="#1A142D" d="M212.587,21.334v-8.833h-3.036v-1.654h7.811v1.654h-3.051v8.833H212.587z"/>
	<path fill="#1A142D" d="M217.718,21.451c-0.344,0-0.643-0.123-0.899-0.369c-0.244-0.256-0.367-0.561-0.367-0.916
		c0-0.344,0.123-0.645,0.367-0.9c0.257-0.256,0.556-0.384,0.899-0.384c0.354,0,0.653,0.128,0.899,0.384
		c0.255,0.256,0.383,0.557,0.383,0.9c0,0.355-0.128,0.66-0.383,0.916C218.371,21.328,218.072,21.451,217.718,21.451z"/>
	<path fill="#1A142D" d="M129.6,24.615V7.385h1.414v17.23H129.6z"/>
</g>
</svg>
