<svg width="48" height="48" viewBox="0 0 48 48" fill="none" xmlns="http://www.w3.org/2000/svg">
<path d="M28.1537 35.5184C36.0923 33.6432 42 26.5115 42 18C42 8.05887 33.9411 0 24 0C14.0589 0 6 8.05887 6 18C6 26.5115 11.9077 33.6432 19.8463 35.5184C20.6773 38.3763 22.2263 40.8 24 40.8C25.7737 40.8 27.3227 38.3763 28.1537 35.5184Z" fill="#7A7687"/>
<path d="M26.4 45.6C26.4 46.9255 25.3255 48 24 48C22.6745 48 21.6 46.9255 21.6 45.6C21.6 44.2745 22.6745 43.2 24 43.2C25.3255 43.2 26.4 44.2745 26.4 45.6Z" fill="#7A7687"/>
<path d="M20.8625 14H16V23H20.7004C21.7501 23 22.684 22.9778 23.5099 22.3202C24.1351 21.8251 24.4592 21.1305 24.4592 20.2956C24.4592 19.1798 23.8726 18.4409 22.7226 18.0862C23.5408 17.6798 23.9884 17.1626 23.9884 16.2685C23.9884 14.5985 22.5374 14 20.8625 14ZM18.4776 17.5394V15.7956H20.2142C20.8934 15.7956 21.534 15.9212 21.534 16.6675C21.534 17.2734 21.1404 17.5394 20.2836 17.5394H18.4776ZM18.4776 21.1453V19.0837H20.4071C21.1944 19.0837 21.9122 19.2463 21.9122 20.1182C21.9122 21.0049 21.233 21.1453 20.4766 21.1453H18.4776Z" fill="white"/>
<path d="M28.4033 14H25.7945V15.8177H27.5697C28.6271 15.8177 29.1365 16.1576 29.1365 16.867C29.1365 17.8128 28.4342 17.9754 27.6006 17.9754H25.8022V19.6453H27.369C28.5499 19.6453 28.9899 20.0517 29.1134 21.1084C29.1828 21.6995 29.152 22.4458 29.4067 22.9926H32C31.7221 22.6527 31.7221 22.2832 31.6836 21.8695C31.5601 20.5394 31.5292 20.4433 31.3825 19.9631C31.205 19.3793 30.7651 18.9877 30.1476 18.803C31.151 18.3892 31.6604 17.6429 31.6604 16.6084C31.645 14.8571 30.2094 14.0222 28.4033 14Z" fill="white"/>
</svg>
