<?xml version="1.0" encoding="utf-8"?>
<!-- Generator: Adobe Illustrator 22.0.0, SVG Export Plug-In . SVG Version: 6.00 Build 0)  -->
<svg version="1.1" id="Слой_1" xmlns="http://www.w3.org/2000/svg" xmlns:xlink="http://www.w3.org/1999/xlink" x="0px" y="0px"
	 viewBox="0 0 399 271" style="enable-background:new 0 0 399 271;" xml:space="preserve">
<style type="text/css">
	.st0{fill:#E2E5E8;}
	.st1{fill:#BCBCBC;}
	.st2{fill:#8C8D93;}
</style>
<rect class="st0" width="399" height="271"/>
<g>
	<path class="st1" d="M58.4,125.2c-2.3,0-4,0.9-5.3,2.8c-1.3,1.8-1.9,4.4-1.9,7.6c0,6.7,2.6,10.1,7.7,10.1c1.5,0,3.1-0.2,4.5-0.6
		c1.5-0.4,2.9-1,4.4-1.6v8c-2.9,1.3-6.2,1.9-9.9,1.9c-5.3,0-9.3-1.5-12.2-4.6c-2.8-3.1-4.2-7.5-4.2-13.3c0-3.6,0.7-6.8,2-9.6
		c1.4-2.7,3.3-4.9,5.9-6.3c2.6-1.5,5.6-2.2,9.1-2.2c3.8,0,7.4,0.8,10.9,2.5l-2.9,7.5c-1.3-0.6-2.6-1.1-3.9-1.5
		C61.3,125.4,59.9,125.2,58.4,125.2z"/>
	<path class="st1" d="M84.1,140.2V153h-9.5v-35h11.5c9.5,0,14.3,3.5,14.3,10.4c0,4.1-2,7.2-5.9,9.4l10.2,15.3H94l-7.4-12.8H84.1z
		 M84.1,133.1h1.8c3.3,0,5-1.5,5-4.4c0-2.4-1.6-3.6-4.9-3.6h-1.9V133.1z"/>
	<path class="st1" d="M128.7,153h-20.8v-35h20.8v7.6h-11.3v5.5h10.5v7.6h-10.5v6.6h11.3V153z"/>
	<path class="st2" d="M150.6,153l-7.2-25.2h-0.2c0.3,4.3,0.5,7.6,0.5,10V153h-8.4v-35H148l7.3,24.9h0.2l7.2-24.9h12.6v35h-8.7v-15.4
		c0-0.8,0-1.7,0-2.7c0-1,0.1-3.4,0.3-7.2h-0.2l-7.1,25.2H150.6z"/>
	<path class="st2" d="M204.3,153l-1.7-6.6h-11.4l-1.8,6.6H179l11.4-35.2h12.6l11.6,35.2H204.3z M200.6,138.7l-1.5-5.8
		c-0.4-1.3-0.8-2.9-1.3-5c-0.5-2-0.8-3.5-1-4.4c-0.1,0.8-0.4,2.2-0.9,4c-0.4,1.9-1.3,5.6-2.8,11H200.6z"/>
	<path class="st2" d="M243.9,129.1c0,3.9-1.2,6.9-3.5,9.1c-2.3,2.1-5.6,3.2-9.8,3.2H228V153h-9.5v-35h12.1c4.4,0,7.8,1,10,2.9
		C242.8,122.8,243.9,125.5,243.9,129.1z M228,133.7h1.7c1.4,0,2.5-0.4,3.4-1.2c0.8-0.8,1.3-1.9,1.3-3.3c0-2.4-1.3-3.5-3.9-3.5H228
		V133.7z"/>
	<path class="st1" d="M244.6,149c0-1.5,0.4-2.6,1.3-3.4c0.9-0.8,2.1-1.2,3.8-1.2c1.6,0,2.8,0.4,3.6,1.2c0.8,0.8,1.3,1.9,1.3,3.4
		c0,1.4-0.4,2.6-1.3,3.4c-0.9,0.8-2.1,1.2-3.6,1.2c-1.6,0-2.8-0.4-3.7-1.2C245,151.6,244.6,150.5,244.6,149z"/>
	<path class="st1" d="M285.9,129.1c0,3.9-1.2,6.9-3.5,9.1c-2.3,2.1-5.6,3.2-9.8,3.2h-2.7V153h-9.5v-35h12.1c4.4,0,7.8,1,10,2.9
		C284.8,122.8,285.9,125.5,285.9,129.1z M269.9,133.7h1.7c1.4,0,2.5-0.4,3.4-1.2c0.8-0.8,1.3-1.9,1.3-3.3c0-2.4-1.3-3.5-3.9-3.5
		h-2.4V133.7z"/>
	<path class="st1" d="M301,140.2V153h-9.5v-35H303c9.5,0,14.3,3.5,14.3,10.4c0,4.1-2,7.2-5.9,9.4l10.2,15.3h-10.7l-7.4-12.8H301z
		 M301,133.1h1.8c3.3,0,5-1.5,5-4.4c0-2.4-1.6-3.6-4.9-3.6H301V133.1z"/>
	<path class="st1" d="M357.5,135.4c0,5.9-1.4,10.4-4.3,13.4s-7.1,4.6-12.7,4.6c-5.5,0-9.7-1.5-12.7-4.6c-2.9-3.1-4.4-7.6-4.4-13.5
		c0-5.8,1.5-10.3,4.4-13.4c2.9-3.1,7.2-4.6,12.7-4.6c5.6,0,9.8,1.5,12.7,4.6S357.5,129.5,357.5,135.4z M333.4,135.4
		c0,6.8,2.4,10.2,7.1,10.2c2.4,0,4.2-0.8,5.3-2.5c1.2-1.6,1.8-4.2,1.8-7.7c0-3.5-0.6-6.1-1.8-7.7c-1.2-1.7-2.9-2.5-5.2-2.5
		C335.8,125.2,333.4,128.6,333.4,135.4z"/>
</g>
</svg>
