<svg width="16" height="16" viewBox="0 0 16 16"  xmlns="http://www.w3.org/2000/svg">
<path fill="#fff" fill-rule="evenodd" clip-rule="evenodd" d="M11.6816 3.55546C10.6077 2.48151 8.86648 2.48151 7.79254 3.55546L3.19635 8.15165C2.90345 8.44454 2.42858 8.44454 2.13569 8.15165C1.84279 7.85876 1.84279 7.38388 2.13569 7.09099L6.73188 2.4948C8.39161 0.835068 11.0826 0.835068 12.7423 2.4948C14.402 4.15452 14.402 6.84548 12.7423 8.5052L7.43899 13.8085C6.23487 15.0126 4.28261 15.0126 3.07849 13.8085C1.87438 12.6044 1.87438 10.6521 3.07849 9.44801L8.3818 4.14471C9.1303 3.39621 10.3439 3.39621 11.0924 4.14471C11.8409 4.89322 11.8409 6.10678 11.0924 6.85529L6.49618 11.4515C6.20328 11.7444 5.72841 11.7444 5.43552 11.4515C5.14262 11.1586 5.14262 10.6837 5.43552 10.3908L10.0317 5.79463C10.1944 5.63191 10.1944 5.36809 10.0317 5.20537C9.86899 5.04265 9.60517 5.04265 9.44246 5.20537L4.13915 10.5087C3.52082 11.127 3.52082 12.1295 4.13915 12.7478C4.75748 13.3662 5.76 13.3662 6.37833 12.7478L11.6816 7.44454C12.7556 6.3706 12.7556 4.6294 11.6816 3.55546Z" />
</svg>
