<svg width="715" height="384" viewBox="0 0 715 384" fill="none" xmlns="http://www.w3.org/2000/svg">
<g opacity="0.04">
<path d="M217.382 1H1V383H210.169C256.88 383 298.439 382.059 335.19 354.146C363.011 333.133 377.436 303.652 377.436 268.212C377.436 220.854 351.333 189.491 300.157 174.437C336.564 157.187 356.485 135.233 356.485 97.2841C356.485 26.4039 291.914 1 217.382 1ZM111.252 151.228V77.2118H188.531C218.756 77.2118 247.263 82.5435 247.263 114.22C247.263 139.938 229.747 151.228 191.622 151.228H111.252ZM111.252 304.279V216.777H197.118C232.151 216.777 264.093 223.677 264.093 260.685C264.093 298.32 233.868 304.279 200.209 304.279H111.252Z" stroke="white" stroke-width="1.5"/>
<path d="M552.946 1H436.855V78.1527H515.852C562.906 78.1527 585.575 92.5796 585.575 122.688C585.575 162.832 554.32 169.732 517.226 169.732H437.199V240.612H506.922C559.472 240.612 579.049 257.862 584.545 302.711C587.636 327.801 586.262 359.478 597.596 382.686H713C700.635 368.259 700.635 352.578 698.918 335.015C693.423 278.561 692.049 274.484 685.523 254.098C677.623 229.322 658.046 212.699 630.569 204.859C675.219 187.295 697.888 155.619 697.888 111.711C697.201 37.381 633.317 1.94089 552.946 1Z" stroke="white" stroke-width="1.5"/>
</g>
</svg>
