<?xml version="1.0" encoding="UTF-8"?>
<!DOCTYPE svg PUBLIC "-//W3C//DTD SVG 1.1//EN" "http://www.w3.org/Graphics/SVG/1.1/DTD/svg11.dtd">
<!-- Creator: CorelDRAW 2020 (64-Bit) -->
<svg xmlns="http://www.w3.org/2000/svg" xml:space="preserve" width="45.597mm" height="45.597mm" version="1.1" style="shape-rendering:geometricPrecision; text-rendering:geometricPrecision; image-rendering:optimizeQuality; fill-rule:evenodd; clip-rule:evenodd"
viewBox="0 0 4559.7 4559.7"
 xmlns:xlink="http://www.w3.org/1999/xlink"
 xmlns:xodm="http://www.corel.com/coreldraw/odm/2003">
 <defs>
  <style type="text/css">
   <![CDATA[
    .fil0 {fill:#2FAC92}
   ]]>
  </style>
 </defs>
 <g id="Слой_x0020_1">
  <metadata id="CorelCorpID_0Corel-Layer"/>
  <g id="_1980440223728">
   <path class="fil0" d="M2272.72 49.68c1259.13,0 2279.86,998.72 2279.86,2230.7 0,1231.98 -1020.73,2230.7 -2279.86,2230.7 -1259.13,0 -2279.86,-998.72 -2279.86,-2230.7 0,-1231.98 1020.73,-2230.7 2279.86,-2230.7zm0 421.36c1021.29,0 1849.22,810.07 1849.22,1809.34 0,999.27 -827.93,1809.34 -1849.22,1809.34 -1021.29,0 -1849.22,-810.07 -1849.22,-1809.34 0,-999.27 827.93,-1809.34 1849.22,-1809.34z"/>
   <rect class="fil0" x="2035.65" y="1104.2" width="442.45" height="1401.1" rx="221.23" ry="221.23"/>
   <rect class="fil0" transform="matrix(-0.000726884 0.580646 -0.580646 -0.000726884 3440.71 2066.44)" width="762" height="2413" rx="381" ry="381"/>
  </g>
 </g>
</svg>
