<?xml version="1.0" encoding="utf-8"?>
<!-- Generator: Adobe Illustrator 16.0.0, SVG Export Plug-In . SVG Version: 6.00 Build 0)  -->
<!DOCTYPE svg PUBLIC "-//W3C//DTD SVG 1.1//EN" "http://www.w3.org/Graphics/SVG/1.1/DTD/svg11.dtd">
<svg version="1.1" id="Layer_1" xmlns="http://www.w3.org/2000/svg" xmlns:xlink="http://www.w3.org/1999/xlink" x="0px" y="0px"
	 width="700px" height="700px" viewBox="0 0 700 700" enable-background="new 0 0 700 700" xml:space="preserve">
<path d="M90.013,69.996c-15.488,0-25.094,16.836-17.238,30.188l217.23,289.82v219.99c0,14.875,15.645,24.535,28.945,17.887
	l79.991-40.004c6.773-3.395,11.043-10.309,11.043-17.887v-180l217.23-289.821c7.875-13.336-1.734-30.188-17.238-30.188
	L90.013,69.996z M125.064,110h449.87l-202.18,264.36c-1.82,3.078-2.781,6.599-2.766,10.169v173.109l-40.004,20.004V384.532
	c0-3.586-0.961-7.086-2.766-10.168L125.064,110z"/>
</svg>
