<?xml version="1.0" encoding="utf-8"?>
<!-- Generator: Adobe Illustrator 16.0.0, SVG Export Plug-In . SVG Version: 6.00 Build 0)  -->
<!DOCTYPE svg PUBLIC "-//W3C//DTD SVG 1.1//EN" "http://www.w3.org/Graphics/SVG/1.1/DTD/svg11.dtd">
<svg version="1.1" id="Layer_1" xmlns="http://www.w3.org/2000/svg" xmlns:xlink="http://www.w3.org/1999/xlink" x="0px" y="0px"
	 width="32px" height="32px" viewBox="0 0 32 32" enable-background="new 0 0 219 32" xml:space="preserve">
	<path fill="#F0EFF4" d="M26.812,0H5.358C4.653,0,3.956,0.138,3.305,0.406s-1.242,0.662-1.74,1.158
	C1.067,2.061,0.672,2.649,0.404,3.297C0.136,3.945-0.002,4.64,0,5.341V26.67c0,0.701,0.138,1.395,0.407,2.041
	s0.664,1.234,1.161,1.729s1.088,0.888,1.739,1.155S4.654,32,5.358,32h21.454c0.704,0,1.401-0.137,2.051-0.404
	s1.241-0.66,1.739-1.155s0.892-1.083,1.161-1.729s0.407-1.34,0.407-2.041V5.33c0-0.7-0.138-1.394-0.407-2.04
	c-0.269-0.647-0.664-1.235-1.161-1.73s-1.088-0.888-1.739-1.155S27.516,0,26.812,0z M4.279,9.722h7.151
	c2.463,0,4.597,0.915,4.597,3.466c0,1.366-0.658,2.157-1.861,2.778c1.691,0.542,2.554,1.67,2.554,3.375
	c0,1.276-0.477,2.338-1.396,3.094c-1.215,1.006-2.588,1.039-4.132,1.039H4.279V9.722z M7.923,12.466v2.665h2.656
	c1.26,0,1.839-0.407,1.839-1.333c0-1.141-0.942-1.333-1.941-1.333H7.923z M7.923,17.49v3.15h2.94c1.112,0,2.111-0.215,2.111-1.569
	c0-1.333-1.056-1.581-2.214-1.581H7.923z M18.684,9.722h3.837c2.656,0.034,4.768,1.31,4.79,3.986c0,1.581-0.749,2.721-2.225,3.354
	c0.908,0.282,1.555,0.88,1.816,1.772l0.004,0.012c0.212,0.725,0.258,0.881,0.439,2.901c0.006,0.07,0.012,0.14,0.018,0.208
	c0.044,0.549,0.084,1.047,0.448,1.509h-3.814c-0.273-0.61-0.323-1.382-0.37-2.106c-0.017-0.268-0.034-0.529-0.062-0.773
	c-0.182-1.614-0.829-2.235-2.565-2.235h-2.305v-2.552h2.645c1.226,0,2.259-0.249,2.259-1.694c0-1.084-0.749-1.604-2.304-1.604
	h-2.611V9.722z" />

</svg>