<svg width="857" height="482" viewBox="0 0 857 482" fill="none" xmlns="http://www.w3.org/2000/svg">
<path d="M260.537 1H1V481H251.886C307.913 481 357.76 479.818 401.84 444.744C435.209 418.34 452.512 381.296 452.512 336.764C452.512 277.256 421.203 237.847 359.82 218.931C403.488 197.256 427.382 169.67 427.382 121.985C427.382 32.9212 349.933 1 260.537 1ZM133.24 189.769V96.7636H225.932C262.185 96.7636 296.378 103.463 296.378 143.266C296.378 175.581 275.368 189.769 229.64 189.769H133.24ZM133.24 382.084V272.133H236.231C278.251 272.133 316.564 280.803 316.564 327.305C316.564 374.596 280.311 382.084 239.939 382.084H133.24Z" stroke="#E5E2EE" stroke-width="1.5"/>
<path d="M663.025 1H523.782V97.9458H618.533C674.972 97.9458 702.162 116.074 702.162 153.906C702.162 204.35 664.673 213.02 620.181 213.02H524.194V302.084H607.822C670.852 302.084 694.334 323.759 700.926 380.113C704.633 411.64 702.986 451.443 716.58 480.606H855C840.169 462.478 840.169 442.773 838.11 420.704C831.518 349.768 829.87 344.645 822.043 319.029C812.568 287.896 789.086 267.01 756.129 257.158C809.684 235.089 836.874 195.286 836.874 140.113C836.05 46.7143 759.425 2.18227 663.025 1Z" stroke="#E5E2EE" stroke-width="1.5"/>
</svg>
