<?xml version="1.0" encoding="utf-8"?>
<!-- Generator: Adobe Illustrator 22.0.0, SVG Export Plug-In . SVG Version: 6.00 Build 0)  -->
<svg version="1.1" id="Слой_1" xmlns="http://www.w3.org/2000/svg" xmlns:xlink="http://www.w3.org/1999/xlink" x="0px" y="0px"
	 viewBox="0 0 90.7 70" style="enable-background:new 0 0 90.7 70;" xml:space="preserve">
<style type="text/css">
	.st0{fill:none;}
</style>
<path class="st0" d="M78.2,24.5c0-6.7-5.3-12-12-12c-6.7,0-12,5.3-12,12c0,6.7,5.3,12,12,12C72.9,36.5,78.2,31.2,78.2,24.5z"/>
<path d="M0,13.4v8h35.9c0.3-2.9,1.2-5.5,2.4-8H0z"/>
<path d="M0,31v8h39.4c-1.2-2.7-2.2-5.4-2.8-8H0z"/>
<path d="M0,48.6v8h49.6c-1.7-2.5-3.5-5.2-5.2-8H0z"/>
<path d="M66.2,0c-9.6,0-17.9,5.4-21.9,13.4c-1.2,2.5-2.1,5.1-2.4,8c-0.1,1-0.2,2-0.2,3.1c0,2.1,0.3,4.3,0.9,6.5
	c0.6,2.6,1.6,5.3,2.8,8c1.4,3.2,3.2,6.5,5,9.6c1.7,2.8,3.5,5.5,5.2,8C61.1,64.4,66.2,70,66.2,70s24.5-27.3,24.5-45.5
	C90.7,10.9,79.8,0,66.2,0z M66.2,36.5c-6.7,0-12-5.3-12-12c0-6.7,5.3-12,12-12c6.7,0,12,5.3,12,12C78.2,31.2,72.9,36.5,66.2,36.5z"
	/>
</svg>
