<svg width="24" height="24" viewBox="0 0 24 24" fill="none" xmlns="http://www.w3.org/2000/svg">
<path d="M10.5303 17.4697C10.8232 17.7626 10.8232 18.2374 10.5303 18.5303C10.2374 18.8232 9.76256 18.8232 9.46967 18.5303L10.5303 17.4697ZM4 12L3.46967 12.5303C3.17678 12.2374 3.17678 11.7626 3.46967 11.4697L4 12ZM9.46967 5.46967C9.76256 5.17678 10.2374 5.17678 10.5303 5.46967C10.8232 5.76256 10.8232 6.23744 10.5303 6.53033L9.46967 5.46967ZM20 11.25C20.4142 11.25 20.75 11.5858 20.75 12C20.75 12.4142 20.4142 12.75 20 12.75L20 11.25ZM9.46967 18.5303L3.46967 12.5303L4.53033 11.4697L10.5303 17.4697L9.46967 18.5303ZM3.46967 11.4697L9.46967 5.46967L10.5303 6.53033L4.53033 12.5303L3.46967 11.4697ZM4 11.25L20 11.25L20 12.75L4 12.75L4 11.25Z" fill="#1A142D"/>
</svg>
