<svg width="16" height="16" viewBox="0 0 16 16"  xmlns="http://www.w3.org/2000/svg">
<path fill-rule="evenodd" clip-rule="evenodd" d="M4.5 9.75C4.08578 9.75 3.75 9.41421 3.75 9V3.92547L2.55239 5.22953C2.27222 5.53461 1.79777 5.5548 1.49269 5.27462C1.18761 4.99444 1.16742 4.52 1.4476 4.21492L3.9476 1.4927C4.08964 1.33803 4.29001 1.25 4.5 1.25C4.70998 1.25 4.91036 1.33803 5.05239 1.4927L7.55239 4.21492C7.83257 4.52 7.81238 4.99444 7.5073 5.27462C7.20222 5.5548 6.72777 5.53461 6.4476 5.22953L5.25 3.92547V9C5.25 9.41421 4.91421 9.75 4.5 9.75Z" />
<path fill-rule="evenodd" clip-rule="evenodd" d="M11.5 6.25C11.0858 6.25 10.75 6.58579 10.75 7V12.0745L9.55239 10.7705C9.27222 10.4654 8.79777 10.4452 8.49269 10.7254C8.18761 11.0056 8.16742 11.48 8.4476 11.7851L10.9476 14.5073C11.0896 14.662 11.29 14.75 11.5 14.75C11.71 14.75 11.9104 14.662 12.0524 14.5073L14.5524 11.7851C14.8326 11.48 14.8124 11.0056 14.5073 10.7254C14.2022 10.4452 13.7278 10.4654 13.4476 10.7705L12.25 12.0745V7C12.25 6.58579 11.9142 6.25 11.5 6.25Z" />
</svg>
