<svg width="16" height="16" viewBox="0 0 16 16"  xmlns="http://www.w3.org/2000/svg">
<path fill="#fff" fill-rule="evenodd" clip-rule="evenodd" d="M8 1.75C4.54822 1.75 1.75 4.54822 1.75 8C1.75 11.4518 4.54822 14.25 8 14.25C11.4518 14.25 14.25 11.4518 14.25 8C14.25 4.54822 11.4518 1.75 8 1.75ZM0.25 8C0.25 3.71979 3.71979 0.25 8 0.25C12.2802 0.25 15.75 3.71979 15.75 8C15.75 12.2802 12.2802 15.75 8 15.75C3.71979 15.75 0.25 12.2802 0.25 8Z" />
<path fill="#fff" d="M10 8L7 6V10L10 8Z" />
<path fill="#fff" fill-rule="evenodd" clip-rule="evenodd" d="M6.64611 5.33875C6.88997 5.20823 7.18588 5.22254 7.41603 5.37596L10.416 7.37596C10.6247 7.51506 10.75 7.74924 10.75 8C10.75 8.25077 10.6247 8.48494 10.416 8.62404L7.41603 10.624C7.18588 10.7775 6.88997 10.7918 6.64611 10.6613C6.40224 10.5307 6.25 10.2766 6.25 10V6C6.25 5.7234 6.40224 5.46926 6.64611 5.33875ZM7.75 7.40139V8.59861L8.64792 8L7.75 7.40139Z" />
</svg>
