<?xml version="1.0" encoding="utf-8"?>
<!-- Generator: Adobe Illustrator 16.0.0, SVG Export Plug-In . SVG Version: 6.00 Build 0)  -->
<!DOCTYPE svg PUBLIC "-//W3C//DTD SVG 1.1//EN" "http://www.w3.org/Graphics/SVG/1.1/DTD/svg11.dtd">
<svg version="1.1" id="Layer_1" xmlns="http://www.w3.org/2000/svg" xmlns:xlink="http://www.w3.org/1999/xlink" x="0px" y="0px"
	 width="260px" height="260px" viewBox="0 0 260 260" enable-background="new 0 0 260 260" xml:space="preserve">
<g>
	<path fill="#EB3440" d="M100.368,112.204c0-9.219-7.616-10.77-15.69-10.77h-20.64v21.54h21.468
		C95.688,122.975,100.368,119.687,100.368,112.204z"/>
	<path fill="#EB3440" d="M256.714,27.271c-2.175-5.229-5.362-9.98-9.385-13.982s-8.797-7.175-14.056-9.337
		c-5.256-2.163-10.888-3.271-16.578-3.268H43.304C37.608,0.68,31.97,1.796,26.708,3.967c-5.261,2.172-10.04,5.352-14.065,9.361
		c-4.021,4.009-7.21,8.77-9.38,14.006C1.097,32.571-0.017,38.188,0,43.851v172.385c-0.004,5.668,1.113,11.271,3.287,16.496
		c2.174,5.226,5.363,9.978,9.385,13.979c4.021,4.001,8.796,7.175,14.053,9.337c5.257,2.162,10.892,3.27,16.579,3.27h173.393
		c5.689,0,11.322-1.105,16.578-3.27c5.258-2.162,10.031-5.336,14.055-9.337c4.021-4.002,7.21-8.754,9.385-13.979
		c2.174-5.226,3.291-10.828,3.287-16.496V43.758C260.005,38.1,258.889,32.495,256.714,27.271z"/>
	<path fill="#EB3440" d="M86.97,142.042H64.038v25.463h23.761c8.99,0,17.064-1.735,17.064-12.685
		C104.863,144.047,96.331,142.042,86.97,142.042z"/>
</g>
<path fill="#FFFFFF" d="M190.73,114.666c0,11.682-8.346,13.69-18.256,13.69h-21.377v20.625h18.627
	c14.037,0,19.268,5.02,20.734,18.065c0.221,1.974,0.357,4.089,0.497,6.251c0.375,5.855,0.776,12.092,2.987,17.023h30.824
	c-2.936-3.732-3.26-7.756-3.619-12.193c-0.047-0.552-0.09-1.111-0.142-1.682c-1.46-16.329-1.831-17.592-3.548-23.448l-0.031-0.095
	c-2.107-7.215-7.337-12.045-14.677-14.326c11.926-5.111,17.979-14.33,17.979-27.104c-0.182-21.63-17.246-31.942-38.715-32.215
	h-31.011v22.447h21.101C184.678,101.706,190.73,105.905,190.73,114.666z"/>
<path fill="#FFFFFF" d="M123.854,182.014c7.432-6.109,11.283-14.689,11.283-25.007c0-13.778-6.97-22.903-20.64-27.28
	c9.723-5.021,15.043-11.409,15.043-22.451c0-20.624-17.245-28.017-37.155-28.017h-57.8v111.15h55.873
	C102.938,190.409,114.035,190.143,123.854,182.014z M64.038,101.435h20.64c8.074,0,15.69,1.551,15.69,10.77
	c0,7.482-4.68,10.771-14.862,10.771H64.038V101.435z M64.038,167.505v-25.463H86.97c9.361,0,17.893,2.005,17.893,12.778
	c0,10.949-8.074,12.685-17.064,12.685H64.038L64.038,167.505z"/>
</svg>
