<?xml version="1.0" standalone="no"?>
<!DOCTYPE svg PUBLIC "-//W3C//DTD SVG 20010904//EN"
 "http://www.w3.org/TR/2001/REC-SVG-20010904/DTD/svg10.dtd">
<svg version="1.0" xmlns="http://www.w3.org/2000/svg"
 width="700.000000pt" height="700.000000pt" viewBox="0 0 700.000000 700.000000"
 preserveAspectRatio="xMidYMid meet">
<metadata>
Created by potrace 1.14, written by Peter Selinger 2001-2017
</metadata>
<g transform="translate(0.000000,700.000000) scale(0.100000,-0.100000)"
fill="#000000" stroke="none">
<path d="M969 6964 c-504 -91 -889 -488 -958 -988 -15 -108 -15 -4844 0 -4952
61 -440 376 -815 798 -948 189 -60 30 -57 2731 -53 l2475 2 85 23 c111 29 172
53 267 101 334 168 570 501 622 875 15 108 15 4844 0 4952 -70 503 -460 903
-963 989 -78 13 -394 15 -2535 14 -2027 -1 -2459 -3 -2522 -15z m1826 -2122
c376 -72 602 -252 671 -537 24 -96 24 -288 0 -375 -40 -146 -133 -266 -284
-364 l-91 -59 78 -32 c157 -65 291 -172 364 -292 102 -167 131 -413 77 -640
-77 -322 -330 -557 -682 -634 -144 -31 -373 -39 -1205 -39 l-793 0 0 1501 0
1501 878 -5 c838 -4 882 -5 987 -25z m2355 4 c115 -21 282 -75 359 -116 202
-108 340 -278 403 -495 20 -69 23 -102 23 -245 0 -160 -1 -168 -33 -260 -18
-52 -47 -117 -64 -145 -71 -117 -181 -217 -305 -278 -35 -17 -63 -34 -63 -37
0 -3 23 -14 51 -24 69 -25 159 -87 212 -145 121 -136 168 -313 212 -801 23
-258 44 -349 92 -403 16 -16 -3 -17 -402 -15 l-418 3 -14 40 c-27 78 -43 180
-58 373 -18 229 -35 335 -64 413 -62 163 -168 240 -366 269 -38 5 -199 10
-357 10 l-288 0 0 274 0 274 363 5 c382 5 450 12 536 56 55 28 109 85 135 140
18 39 21 65 21 166 0 114 -1 123 -30 173 -35 64 -71 97 -143 129 -95 44 -179
52 -544 53 l-338 0 0 306 0 306 493 -5 c410 -3 508 -7 587 -21z"/>
<path d="M1720 3981 l0 -291 338 0 c424 0 483 10 574 98 52 49 72 113 66 211
-8 130 -63 202 -188 243 -61 20 -89 22 -427 26 l-363 4 0 -291z"/>
<path d="M1728 3174 c-5 -4 -8 -160 -8 -346 l0 -338 373 0 c406 1 484 8 574
53 110 56 158 155 151 310 -6 137 -51 212 -159 268 -90 45 -144 51 -544 56
-209 3 -383 2 -387 -3z"/>
</g>
</svg>
